<svg id="Capa_1" data-name="Capa 1" xmlns="http://www.w3.org/2000/svg" viewBox="0 0 225 218.24"><title>gitHub2</title><polyline points="74.86 216.79 150.39 216.79 204.71 102.36 170 25.21 41.75 28.43 20.86 124.21 26.32 164.07" style="fill:#fff"/><path d="M225.75,122c-1.18,6.35-1.92,12.83-3.62,19-10,36.52-32.71,61.94-67.61,76.5-6.16,2.57-10.53-.48-10.57-7.37,0-8.25.12-16.5.09-24.75,0-3.36-.21-6.74-.5-10.09-.62-7.11-2.86-13.44-10.09-18,3.78-.58,6.66-.86,9.46-1.49,5.71-1.3,11.52-2.4,17-4.28,13.84-4.71,22.46-14.48,26-28.62a84.7,84.7,0,0,0,2.24-32.33,46.32,46.32,0,0,0-11.27-24.88c-1.59-1.81-1.88-3.57-1.8-6.05a129,129,0,0,0-.58-21.18c-.8-6-3.09-7.29-8.88-5.39a115.84,115.84,0,0,0-19.54,8.36,18.07,18.07,0,0,1-12.54,2.18c-16.52-2.6-33.08-2.7-49.45,1.67-1.27.34-3.11-.37-4.34-1.15C72.07,39.21,64.17,34.73,55,33.18c-5.34-.91-5.86-.63-7.44,4.53C45,46,45,54.42,46.78,62.9a5.7,5.7,0,0,1-.91,4.34C35.32,79,33.86,93,35.63,107.68a76.87,76.87,0,0,0,3.93,17.08c6.56,17.93,21,26.16,38.61,30.16,4.36,1,8.82,1.59,12.45,2.22-2.32,4.53-4.63,9.22-7.16,13.78A5.27,5.27,0,0,1,80.6,173c-8.59,2.67-20.88,3.66-28.36-7.75a54.86,54.86,0,0,0-7.58-8.77,13.12,13.12,0,0,0-12-3.83,4.19,4.19,0,0,0-2.6,1.59c-.24.38.58,1.94,1.28,2.36,7.59,4.51,11.66,11.61,15.3,19.33C50.77,184.72,58.35,189,68,189.48c4.6.24,9.22,0,14.17,0a9.85,9.85,0,0,1,.3,1.89c.06,6.13.3,12.26,0,18.37a15,15,0,0,1-2.51,6.74c-1.45,2.32-3.61,2.76-6.48,1.62-29.56-11.73-50.84-32-63.63-61.16a102.5,102.5,0,0,1-8.4-33.26,25.78,25.78,0,0,0-.63-3.22v-15c.31-2.32.63-4.63.94-7A112.3,112.3,0,0,1,87,3.84c6.87-1.65,14-2.25,21-3.34h10.5a28.77,28.77,0,0,0,3.29.6A112,112,0,0,1,222,84.24c1.69,6.48,2.55,13.17,3.79,19.76Z" transform="translate(-0.75 -0.5)"/></svg>