<svg id="Capa_1" data-name="Capa 1" xmlns="http://www.w3.org/2000/svg" viewBox="0 0 480 480"><title>javaScript</title><path d="M1,1H481V481H1ZM286.81,397.28c6.79,13.09,15.7,23.51,27.65,31.07,25.11,15.91,52.44,18.46,80.7,11.72,41.09-9.81,55.45-44.43,45.67-80.54-4.75-17.53-17.12-29.17-32.47-37.46-13-7-26.77-12.55-40-19.17-6.34-3.17-12.7-6.71-18.1-11.22-6-5.05-6.6-12.52-4.61-19.82s7.25-11.45,14.47-12.92c11.94-2.42,22.11.65,29.79,10.47,1.93,2.47,3.65,5.11,5.65,7.95L430.4,255c-10.47-18.58-25-31.24-45.9-34.29a113.7,113.7,0,0,0-32.74-.36c-23.2,3.45-41,15.72-48.23,38.78-7.36,23.45-3.64,45.54,13.81,64C328,334.38,341.8,340.68,355.64,347c10.74,4.87,21.54,9.67,31.87,15.3,8.11,4.41,12,11.88,10.76,21.36S390.91,398.5,382.42,401c-17.49,5.08-33.72,2.59-47.31-10.3-4.43-4.2-8-9.32-12.2-14.34Zm-159.36,4.83c4.49,9.51,10.1,17.5,17.7,23.94,20.49,17.39,44.37,20,69.61,15.12,23.66-4.62,38.9-19,44.71-42.33a109.21,109.21,0,0,0,2.75-25.72c.25-48.81.13-97.63.13-146.45v-5H217.21v5.73q0,71.72,0,143.45a100.45,100.45,0,0,1-.31,11c-1,8.86-3.82,16.68-13.29,19.87-12.44,4.2-24.48.36-32.28-10.33-2.62-3.59-4.91-7.42-7.45-11.31Z" transform="translate(-1 -1)" style="fill:#f6de1e"/><path d="M286.81,397.28l36.1-20.95c4.22,5,7.77,10.14,12.2,14.34,13.59,12.89,29.82,15.38,47.31,10.3,8.49-2.47,14.64-7.94,15.85-17.36s-2.65-16.95-10.76-21.36c-10.33-5.63-21.13-10.43-31.87-15.3-13.84-6.27-27.67-12.57-38.3-23.84-17.45-18.48-21.17-40.57-13.81-64,7.24-23.06,25-35.33,48.23-38.78a113.7,113.7,0,0,1,32.74.36c20.87,3.05,35.43,15.71,45.9,34.29l-34.82,22.4c-2-2.84-3.72-5.48-5.65-7.95-7.68-9.82-17.85-12.89-29.79-10.47-7.22,1.47-12.49,5.65-14.47,12.92s-1.44,14.77,4.61,19.82c5.4,4.51,11.76,8.05,18.1,11.22,13.21,6.62,27,12.16,40,19.17,15.35,8.29,27.72,19.93,32.47,37.46,9.78,36.11-4.58,70.73-45.67,80.54-28.26,6.74-55.59,4.19-80.7-11.72C302.51,420.79,293.6,410.37,286.81,397.28Z" transform="translate(-1 -1)" style="fill:#010100"/><path d="M127.45,402.11l36.42-22.06c2.54,3.89,4.83,7.72,7.45,11.31,7.8,10.69,19.84,14.53,32.28,10.33,9.47-3.19,12.3-11,13.29-19.87a100.45,100.45,0,0,0,.31-11q0-71.73,0-143.45v-5.73h45.14v5c0,48.82.12,97.64-.13,146.45a109.21,109.21,0,0,1-2.75,25.72c-5.81,23.37-21.05,37.71-44.71,42.33-25.24,4.92-49.12,2.27-69.61-15.12C137.55,419.61,131.94,411.62,127.45,402.11Z" transform="translate(-1 -1)" style="fill:#020200"/></svg>