<svg id="Capa_1" data-name="Capa 1" xmlns="http://www.w3.org/2000/svg" viewBox="0 0 31.58 29.04"><title>logoBasic</title><rect x="0.13" y="0.12" width="28.75" height="28.79" rx="7.95" style="fill:#141414"/><path d="M21.93,1.23a7.83,7.83,0,0,1,7.82,7.82V22a7.83,7.83,0,0,1-7.82,7.82H9.07A7.83,7.83,0,0,1,1.25,22V9.05A7.83,7.83,0,0,1,9.07,1.23H21.93m0-.25H9.07A8.07,8.07,0,0,0,1,9.05V22A8.07,8.07,0,0,0,9.07,30H21.93A8.07,8.07,0,0,0,30,22V9.05A8.07,8.07,0,0,0,21.93,1Z" transform="translate(-1 -0.98)"/><circle cx="9.62" cy="14.82" r="2.8" style="fill:#141414;stroke:#fff;stroke-miterlimit:10;stroke-width:0.25px"/><path d="M10.7,17.39a1.51,1.51,0,1,1,1.51-1.51A1.52,1.52,0,0,1,10.7,17.39Z" transform="translate(-1 -0.98)" style="fill:#141414"/><path d="M10.7,14.5a1.38,1.38,0,1,1-1.38,1.38A1.38,1.38,0,0,1,10.7,14.5m0-.25a1.63,1.63,0,1,0,1.63,1.63,1.63,1.63,0,0,0-1.63-1.63Z" transform="translate(-1 -0.98)" style="fill:#fff"/><path d="M14.59,18.52V11.06s4.66-.93,4.51,2.18-3.58,2.33-3.58,2.33v2.95Z" transform="translate(-1 -0.98)" style="fill:#141414;stroke:#fff;stroke-miterlimit:10;stroke-width:0.25px"/><path d="M15.52,11.84v2.95s2.8.31,2.64-1.55S16,11.68,15.52,11.84Z" transform="translate(-1 -0.98)" style="fill:#141414;stroke:#fff;stroke-miterlimit:10;stroke-width:0.25px"/><polygon points="5.73 11.55 0.6 14.35 0.6 14.98 5.73 17.62 5.73 16.84 1.22 14.66 5.73 12.33 5.73 11.55" style="fill:#141414;stroke:#fff;stroke-miterlimit:10;stroke-width:0.25px"/><polygon points="18.56 18.01 19.34 18.01 22.45 9.92 21.67 9.92 18.56 18.01" style="fill:#141414;stroke:#fff;stroke-miterlimit:10;stroke-width:0.25px"/><polygon points="23.23 11.63 23.23 12.41 27.59 14.59 23.23 16.77 23.23 17.54 28.36 14.9 28.36 14.28 23.23 11.63" style="fill:#141414;stroke:#fff;stroke-miterlimit:10;stroke-width:0.25px"/><path d="M25.74,27.21c-.06-.09-.15-.36.55-.63a.1.1,0,0,0,.05,0c0-.14.15-.63-.91-.53,0,0-.55-.44.74-.55,0,0,0,0,.06,0s.24-.55-.77-.74a.08.08,0,0,1-.05-.05c-.07-.13-.22-.58,1-.3,0,0,.56-.11-.33-.89,0,0-.11-.67.89.11,0,0,.65.11.14-.95a.09.09,0,0,1,0-.1c.12-.11.46-.35.74.36a.08.08,0,0,0,0,0c.11.07.62.41.44-.65a.08.08,0,0,1,0-.07c.1-.13.55-.56.75.65a.09.09,0,0,0,.06.07c.11,0,.41,0,.5-.55,0,0,0,0,0-.05s.62-.6.44.76a.05.05,0,0,0,0,.07c.11.09.45.3.73-.21a.08.08,0,0,1,.05-.05c.17,0,.76-.08.08.79,0,0-.34.67.76.24h0c.13,0,.76.17-.23.77l0,0c0,.08-.18.44.8.54,0,0,.33.33-.23.45s-.55.28-.55.32,0,0,0,0,.06.34.67.44c0,0,.33.22,0,.44,0,0-1.23-.11-1,.12,0,0,.64.74.36,1a.07.07,0,0,1-.06,0,1.28,1.28,0,0,1-.83-.29.08.08,0,0,0-.09,0c-.09,0-.24.14-.17.53a0,0,0,0,1,0,0c.05.08.29.55-.11.55a1.36,1.36,0,0,1-.55-.52.06.06,0,0,0-.06-.05.32.32,0,0,0-.4.34s.22.67-.22.67-.43-.56-.45-.79a.07.07,0,0,0-.1-.07c-.1,0-.24,0-.24,0s-.2.61-.42.67l-.05,0c-.08-.05-.29-.24-.31-.91a.08.08,0,0,0-.08-.08h-.1a.09.09,0,0,0-.07,0,.8.8,0,0,1-.73.31s0,0-.05,0-.21-.37.22-.73a.07.07,0,0,0,0-.06c0-.11,0-.39-.23-.3a1.59,1.59,0,0,1-.75,0A.1.1,0,0,1,25.74,27.21Z" transform="translate(-1 -0.98)" style="fill:#840707;stroke:#000;stroke-miterlimit:10;stroke-width:0.25px"/><circle cx="27.89" cy="24.69" r="0.89" style="fill:#141414;stroke:#000;stroke-miterlimit:10;stroke-width:0.25px"/></svg>