<svg id="Layer_1" data-name="Layer 1" xmlns="http://www.w3.org/2000/svg" viewBox="0 0 142.01 159.96"><title>nodeJs</title><path d="M145,122c-2.72,4.49-6.83,7.26-11.31,9.81q-25.77,14.64-51.32,29.66c-5.62,3.3-10.84,3.37-16.35-.1-6.37-4-12.89-7.78-20-12.06l11.28-5.12a9.52,9.52,0,0,1,2.13,1.15c9.59,8.79,18.52,7.91,29.16.52,13.32-9.25,27.92-16.67,42.08-24.69,2.72-1.55,3.55-3.32,3.53-6.33q-.16-31,0-62c0-2.82-.79-4.45-3.35-5.91Q104,31.7,77.32,16.1A6,6,0,0,0,70.48,16Q43.6,31.72,16.54,47.11a5.58,5.58,0,0,0-3.13,5.59c.08,20.83,0,41.66.06,62.49,0,1.63-.4,3.54,1.33,4.54,5.89,3.39,11.62,7.23,17.85,9.83,6.85,2.86,11.83-1,11.86-8.56.09-20.17,0-40.33.05-60.49,0-1.95-.47-4,.85-6,3-.87,6-.25,8.8-.28,1.63,2,1.18,3.87,1.18,5.65,0,20.33-.38,40.67.13,61s-15.45,23.74-28.18,17.93c-6.47-3-12.53-6.81-18.67-10.45C4.61,125.91,3,122,3,117.35Q3,84.11,3,50.87A12.54,12.54,0,0,1,9.53,39.3Q38.39,22.56,67.31,5.92C71.91,3.26,76.46,3.42,81,6q28.66,16.58,57.36,33.13C141.58,41,143.25,44,145,47Z" transform="translate(-2.99 -4)" style="fill:#4f9b43"/><path d="M71.45,94.17c3.48,10.46,6.19,12.44,17.4,12.74,4.66.13,9.35.27,13.9-1,4.18-1.18,7.22-3.66,7.18-8.35,0-4.52-3.78-5.67-7.18-6.32-8.47-1.61-17.07-2.55-25.51-4.29-9-1.87-13.7-6.92-14.2-14.38-.55-8.26,4.21-15.45,12.62-18.23a47.11,47.11,0,0,1,30.38.22c8.65,2.92,13.25,10.29,12.61,19.16-6.36,2.53-8.8,1.64-11.7-4.36a9.19,9.19,0,0,0-5.28-5,36.12,36.12,0,0,0-22.08-.17c-3.13,1-4.8,3.3-4.79,6.8s2.35,4.61,5.07,5.11c7.82,1.44,15.67,2.75,23.52,4,14.06,2.29,20,9.43,17.59,21.28-1.46,7-6.19,11.35-12.71,13.49A52.74,52.74,0,0,1,74,114.56c-8.91-3-13.44-10.63-12.57-19.94C64.71,93.27,68.13,94,71.45,94.17Z" transform="translate(-2.99 -4)" style="fill:#519c45"/></svg>